# xmcd
#
# Track frame offsets:
#	150
#	15325
#	32555
#	50795
#	75167
#	92105
#	102795
#	116245
#	134275
#	147910
#	164192
#	186650
#
# Disc length: 2656
#
# Revision: 2
# Processed by: cddbd v1.5.1PL0 Copyright (c) Steve Scherf et al.
# Submitted via: audiograbber 1.80
# Normalized: r1:DSETVAR1
#
DISCID=a30a5e0c
DTITLE=Various Artist - Boogie in the grass
DYEAR=1900
DGENRE=
TTITLE0=Wild Cherry - Play that funky music
TTITLE1=Cheryl Lynn - Got To be real
TTITLE2=Earth, Wind and Fire - Let's Groove
TTITLE3=Weather Girls - It's Raining Men
TTITLE4=Hartman, Dan - Relight my fire
TTITLE5=Sly and the Family Stone - Everyday People
TTITLE6=O' Jays - Love Train
TTITLE7=Harold Mervin and the Bluenotes - Don't Leave me This Way
TTITLE8=Tina Charles - I Love To Love
TTITLE9=MSFB - T.S.O.P.
TTITLE10=George Duke - Reach Out
TTITLE11=Isley Brothers - That Lady
EXTD=
EXTT0=
EXTT1=
EXTT2=
EXTT3=
EXTT4=
EXTT5=
EXTT6=
EXTT7=
EXTT8=
EXTT9=
EXTT10=
EXTT11=
PLAYORDER=
